HIERARCHY
ROOT HipCenter
{
    OFFSET 0.0 0.0 -0.0
    CHANNELS 6 Xposition Yposition Zposition Zrotation Xrotation Yrotation
    JOINT Spine
    {
        OFFSET 0.0 10.526025772094727 0.0
        CHANNELS 3 Zrotation Xrotation Yrotation
        JOINT ShoulderCenter
        {
            OFFSET 0.0 31.07941436767578 0.0
            CHANNELS 3 Zrotation Xrotation Yrotation
            JOINT LeftShoulder
            {
                OFFSET 19.429794311523438 0.0 0.0
                CHANNELS 3 Zrotation Xrotation Yrotation
                JOINT LeftElbow
                {
                    OFFSET 26.162879943847656 0.0 0.0
                    CHANNELS 3 Zrotation Xrotation Yrotation
                    JOINT LeftWrist
                    {
                        OFFSET 30.868568420410156 0.0 0.0
                        CHANNELS 3 Zrotation Xrotation Yrotation
                        JOINT LeftHand
                        {
                            OFFSET 3.130514144897461 0.0 0.0
                            CHANNELS 3 Zrotation Xrotation Yrotation
                            End Site
                            {
                                OFFSET 1.2522056102752686 0.0 0.0
                            }
                        }
                    }
                }
            }
            JOINT RightShoulder
            {
                OFFSET -19.429794311523438 0.0 0.0
                CHANNELS 3 Zrotation Xrotation Yrotation
                JOINT RightElbow
                {
                    OFFSET -26.162879943847656 0.0 0.0
                    CHANNELS 3 Zrotation Xrotation Yrotation
                    JOINT RightWrist
                    {
                        OFFSET -30.868568420410156 0.0 0.0
                        CHANNELS 3 Zrotation Xrotation Yrotation
                        JOINT RightHand
                        {
                            OFFSET -3.130514144897461 0.0 0.0
                            CHANNELS 3 Zrotation Xrotation Yrotation
                            End Site
                            {
                                OFFSET -1.2522056102752686 0.0 0.0
                            }
                        }
                    }
                }
            }
            End Site
            {
                OFFSET 0.0 12.43176555633545 0.0
            }
        }
    }
    JOINT LeftHip
    {
        OFFSET 14.161975860595703 0.0 0.0
        CHANNELS 3 Zrotation Xrotation Yrotation
        JOINT LeftKnee
        {
            OFFSET 0.0 -41.68095397949219 0.0
            CHANNELS 3 Zrotation Xrotation Yrotation
            JOINT LeftAnkle
            {
                OFFSET 0.0 -43.66956329345703 0.0
                CHANNELS 3 Zrotation Xrotation Yrotation
                JOINT LeftFoot
                {
                    OFFSET 0.0 -11.315187454223633 0.0
                    CHANNELS 3 Zrotation Xrotation Yrotation
                    End Site
                    {
                        OFFSET 0.0 0.0 4.526074409484863
                    }
                }
            }
        }
    }
    JOINT RightHip
    {
        OFFSET -14.161975860595703 0.0 0.0
        CHANNELS 3 Zrotation Xrotation Yrotation
        JOINT RightKnee
        {
            OFFSET 0.0 -41.68095397949219 0.0
            CHANNELS 3 Zrotation Xrotation Yrotation
            JOINT RightAnkle
            {
                OFFSET 0.0 -43.66956329345703 0.0
                CHANNELS 3 Zrotation Xrotation Yrotation
                JOINT RightFoot
                {
                    OFFSET 0.0 -11.315187454223633 0.0
                    CHANNELS 3 Zrotation Xrotation Yrotation
                    End Site
                    {
                        OFFSET 0.0 0.0 4.526074409484863
                    }
                }
            }
        }
    }
}
MOTION
Frames: 5
Frame Time: 0.03333333333333333
-4.0 5.5 31.5 -2.726311094711619 9.010455690759008e-09 -3.5949236420376685 0.6706270238979383 -2.546826550862084 -0.004022089780473881 -4.021967338411616e-07 -1.670032672425035e-07 3.7797271654595415 90.52078646810021 6.9892654192227255 165.9751819212199 7.322982197172065e-06 1.2597546328416462e-06 38.88553551183054 -1.6592312988808069e-06 23.18204577657766 28.783503739870024 3.1805546814635168e-15 -6.3611093629270335e-15 1.7655625192200634e-31 -92.64725358839713 8.555669817223242 -157.58402764386813 3.585284335575106e-06 -1.8813564934654246e-06 -45.4258415854445 179.9999942612428 -49.624551328729794 142.5017046923048 6.3611093629270335e-15 0.0 0.0 7.527205825148056 -3.1436180573390344 -23.422284721544848 -6.32814946883628 20.46820507906195 -21.21641813033627 92.14792221020917 -36.40551525397463 150.40776311164186 0.0 0.0 -3.1805546814635164e-15 -19.15340296739822 0.73144769725923 41.995801494450426 0.012578008316653037 0.05463833634190776 0.11290604132764825 -63.48176187390469 -44.80199579518949 -137.59982777984993 -1.9862578341225716e-31 7.156248033292914e-15 3.1805546814635176e-15
-4.0 5.5 31.60000228881836 -2.7263109147631694 -0.5450524586764866 -3.622451348707149 0.637166466457003 -2.0025761718692716 -0.002736543969113298 9.176442920018952e-08 -2.6136376219379086e-07 3.6505083364796596 90.58171913867173 7.379772385040153 165.9661354963414 2.495845116473784e-06 -4.711748705254372e-07 39.162381949300375 -4.625707934769138e-06 24.356579641546382 27.357454966385088 6.3611093629270335e-15 0.0 0.0 -92.54483287704423 8.248983454876907 -157.81614396084126 -3.96062793262922e-07 -3.8243295864414214e-07 -45.033997866990426 179.99999539370546 -50.999063659182006 142.27266093376176 -1.7655625192200634e-31 -6.361109362927032e-15 -3.180554681463516e-15 7.490701798284113 -2.600713892282849 -22.850664507128396 -6.0993662700483195 20.534822212625297 -21.523039382943843 92.15757773442054 -36.751883152081064 150.46513248315728 3.1805546814635176e-15 1.7655625192200634e-31 6.361109362927035e-15 -19.19122939513355 1.2362072241968902 41.99827115840694 0.04779899008622205 0.021339623999231356 0.0449118770964757 -63.8028391481801 -45.386954044529816 -138.05399678285013 -1.5902773407317584e-15 4.770832022195274e-15 4.770832022195274e-15
-4.0 5.5 31.60000228881836 -2.7263110751898942 -0.5450524885142953 -3.601987799323918 0.4523434964797256 -2.0140441576219796 -0.009650912817616097 -1.0537644446587253e-07 3.378326827319715e-08 3.6237639286191223 90.90426754778811 7.039090564694558 166.0167266516292 1.5819275060884436e-07 2.7697920175783358e-06 39.26034023261736 -4.553308320112028e-06 23.5490905330299 28.430869926942215 -1.5902773407317582e-15 8.827812596100317e-32 -6.361109362927033e-15 -92.35292906427708 8.22415344326088 -157.81790763128404 -4.572906531851945e-06 -1.7878695484004705e-06 -44.953860633640396 179.99999470794586 -49.90612306930568 142.54270649013898 0.0 -7.951386703658792e-16 0.0 7.351672737361224 -2.6125283744397696 -22.48621828403033 -5.831925638532198 20.63676539885398 -21.52723889646372 92.16906384104888 -37.155998325227024 150.11493400963917 3.531125038440127e-31 -6.361109362927035e-15 6.361109362927035e-15 -19.190810061512 1.242933967203522 41.97893773204664 0.09345648804776462 0.15697032020243626 0.3296102132100455 -63.660495436365586 -44.834191169469726 -138.1350994586431 3.1805546814635168e-15 -6.3611093629270335e-15 -3.1805546814635168e-15
-4.0 5.5 31.60000228881836 -3.270487320368226 -0.5447813337679224 -3.60775464094328 1.1795451271068664 -1.9688553336608072 -0.0031091031389772392 -1.686271972225025e-07 -1.686078557471543e-07 3.623730695556536 90.70650379439527 7.122514592493999 166.18205872502716 3.491822217107231e-06 1.8542672555046047e-06 38.93063412568644 -1.7855443591857712e-06 20.826314741340205 26.978036223906447 0.0 0.0 0.0 -92.54111666750427 8.147601394238583 -157.60642917333408 -5.769277731146933e-07 -1.129910231153949e-06 -45.32754096872284 179.99999823699366 -49.69393979584718 142.41734462382712 6.361109362927035e-15 0.0 0.0 8.032691059752873 -2.569669427682837 -22.568665267728903 -6.111428645307017 20.5117322580478 -21.30759719323646 92.18986854220499 -37.25157715064229 150.00061368314695 3.531125038440127e-31 -6.361109362927035e-15 6.361109362927035e-15 -18.521607531076306 1.284475257371961 41.825227936182465 -0.05281800494956693 0.0985518233037992 0.2073684988723543 -63.79740041542077 -44.91923501429086 -138.27963980532957 -3.1805546814635176e-15 -1.5902773407317588e-15 -4.770832022195277e-15
-3.9000000953674316 5.5 31.60000228881836 -2.726311033081083 -0.545052476767954 -3.2945513596650264 0.6362799968435174 -2.1901666251640055 -0.0031556603223430314 8.13075474669719e-08 1.5326017459330962e-10 3.3183678047166802 90.80227448522069 7.407343080924793 165.98719551179832 -4.4679737684850293e-07 -2.767024446390197e-06 38.95467284368725 4.653471564838997e-06 23.859330490316587 28.230136118695057 0.0 0.0 0.0 -92.68977532036534 7.852113465463011 -157.43909635481467 -2.829464712073461e-06 1.1793683074402418e-06 -45.291792985223786 -179.99999831745868 -47.24786438731057 140.544207823183 0.0 0.0 0.0 7.4758124689851835 -2.643418389440445 -23.176110822280695 -6.288281659455984 20.589869541497144 -21.44345517066768 92.33259819523481 -36.76563497398837 150.4488736287891 0.0 1.5902773407317588e-15 0.0 -19.19208255727722 1.4799904030466462 42.64936854360495 -0.03824546415750081 -0.08480617208683064 -0.17656270430761517 -64.12791932997791 -44.722774428875546 -138.47286746583367 1.5902773407317588e-15 -4.4139062980501586e-32 -3.1805546814635176e-15
